<svg width="256" height="256" viewBox="0 0 256 256" fill="none" xmlns="http://www.w3.org/2000/svg">
<rect width="256" height="256" fill="#1F1147"/>
<path d="M132.27 193.859C169.234 193.859 199.2 163.894 199.2 126.93C199.2 120.887 198.399 115.032 196.898 109.464C182.888 122.448 164.861 137.09 143.425 150.169C121.292 163.674 103.769 172.934 90.0625 178.876C101.578 188.244 116.268 193.859 132.27 193.859Z" fill="#703DE8"/>
<path d="M73.7275 159.395C68.3839 149.78 65.3403 138.71 65.3403 126.93C65.3403 89.9654 95.3057 60 132.27 60C159.654 60 183.197 76.4458 193.561 99.9996C166.106 117.869 129.725 139.122 100.682 152.536C87.9861 158.4 79.4082 160.076 73.7275 159.395Z" fill="#703DE8"/>
<path fill-rule="evenodd" clip-rule="evenodd" d="M43.4289 194.647C42.6357 193.327 43.0628 191.614 44.383 190.821L62.9694 179.653C64.2896 178.859 66.0029 179.287 66.7961 180.607C67.5894 181.927 67.1622 183.64 65.842 184.434L47.2556 195.601C45.9354 196.395 44.2222 195.967 43.4289 194.647Z" fill="#F56F8E"/>
<path fill-rule="evenodd" clip-rule="evenodd" d="M45.3669 180.469C44.5737 179.149 45.0008 177.436 46.321 176.643L55.6004 171.067C56.9205 170.274 58.6338 170.701 59.4271 172.021C60.2203 173.341 59.7931 175.055 58.473 175.848L49.1936 181.423C47.8734 182.217 46.1602 181.789 45.3669 180.469Z" fill="#F56F8E"/>
<path fill-rule="evenodd" clip-rule="evenodd" d="M37.3987 185.257C36.6055 183.937 37.0327 182.223 38.3528 181.43C39.673 180.637 41.3863 181.064 42.1795 182.384C42.9728 183.705 42.5456 185.418 41.2254 186.211C39.9052 187.004 38.192 186.577 37.3987 185.257Z" fill="#F56F8E"/>
<path d="M49.4563 187.772C54.2906 200.981 80.6657 201.592 150.352 159.14C188.234 136.063 209.282 108.592 218.196 94.8212C219.32 93.0848 217.15 91.2848 215.508 92.543C192.313 110.319 137.785 144.219 97.7189 162.694C61.8394 179.238 60.0187 161.2 62.7116 152.836C54.8386 161.695 48.9618 172.991 48.6242 181.765L60.082 174.881C61.4022 174.088 63.1155 174.515 63.9087 175.835C64.702 177.155 64.2748 178.869 62.9546 179.662L49.4563 187.772Z" fill="#F56F8E"/>
</svg>
