<svg width="174" height="32" fill="none" xmlns="http://www.w3.org/2000/svg"><path d="M59.386 18.15c.273.342.615.794 1.024 1.357a26.1 26.1 0 0 1 1.306 1.844c.444.665.879 1.365 1.305 2.099.444.734.82 1.442 1.127 2.125h-2.714a33.778 33.778 0 0 0-1.126-1.972 32.885 32.885 0 0 0-1.203-1.894c-.41-.614-.82-1.186-1.23-1.715-.392-.53-.75-.99-1.074-1.383a9.048 9.048 0 0 1-.692.026h-2.918v6.938h-2.483V8.09c.7-.17 1.476-.282 2.33-.333.87-.068 1.663-.102 2.38-.102 2.492 0 4.386.469 5.683 1.408 1.315.938 1.972 2.338 1.972 4.198 0 1.178-.316 2.184-.948 3.02-.614.837-1.527 1.46-2.739 1.87Zm-3.763-8.32c-1.058 0-1.869.026-2.432.077v6.682h1.766c.854 0 1.622-.043 2.304-.128.683-.085 1.255-.247 1.716-.486a2.609 2.609 0 0 0 1.1-.999c.256-.444.384-1.024.384-1.74 0-.666-.128-1.22-.384-1.665a2.815 2.815 0 0 0-1.05-1.05c-.426-.255-.938-.434-1.535-.537a10.758 10.758 0 0 0-1.869-.153ZM77.38 18.919c0 1.058-.153 2.013-.46 2.867a6.446 6.446 0 0 1-1.306 2.201 5.703 5.703 0 0 1-1.971 1.434 6.385 6.385 0 0 1-2.509.486c-.904 0-1.74-.162-2.509-.486a5.967 5.967 0 0 1-1.996-1.434c-.547-.614-.973-1.348-1.28-2.201-.308-.854-.461-1.81-.461-2.867 0-1.041.153-1.989.46-2.842.308-.87.734-1.613 1.28-2.227a5.669 5.669 0 0 1 1.997-1.408 6.106 6.106 0 0 1 2.51-.512c.904 0 1.74.17 2.508.512a5.426 5.426 0 0 1 1.971 1.408c.563.614.999 1.357 1.306 2.227.307.853.46 1.8.46 2.842Zm-2.483 0c0-1.502-.34-2.688-1.024-3.559-.665-.887-1.578-1.331-2.739-1.331-1.16 0-2.082.444-2.765 1.331-.665.87-.998 2.057-.998 3.559 0 1.501.333 2.696.998 3.584.683.87 1.605 1.305 2.765 1.305 1.16 0 2.074-.435 2.74-1.305.682-.888 1.023-2.083 1.023-3.584ZM85.492 25.882c-1.075 0-2.023-.17-2.842-.512a5.843 5.843 0 0 1-2.048-1.434 6.066 6.066 0 0 1-1.229-2.176c-.273-.853-.41-1.792-.41-2.816 0-1.024.146-1.962.436-2.816.307-.853.734-1.587 1.28-2.201a5.502 5.502 0 0 1 1.997-1.46c.802-.358 1.69-.537 2.662-.537.598 0 1.195.051 1.792.153.598.103 1.17.265 1.715.487l-.537 2.022a5.693 5.693 0 0 0-1.255-.41 6.836 6.836 0 0 0-1.484-.153c-1.332 0-2.356.418-3.072 1.254-.7.837-1.05 2.057-1.05 3.661 0 .717.077 1.374.23 1.971.171.598.427 1.11.768 1.536.359.427.811.76 1.357.999.546.222 1.212.333 1.997.333.631 0 1.203-.06 1.715-.18s.913-.247 1.203-.384l.333 1.997c-.136.085-.333.17-.589.256a8.633 8.633 0 0 1-.87.18c-.324.068-.674.119-1.05.153a7.419 7.419 0 0 1-1.05.077ZM95.395 18.253c.512.392 1.05.879 1.613 1.46.58.58 1.143 1.21 1.69 1.894a30.01 30.01 0 0 1 1.587 2.048c.495.682.913 1.322 1.254 1.92h-2.79a18.332 18.332 0 0 0-1.255-1.818 21.507 21.507 0 0 0-1.459-1.792 19.663 19.663 0 0 0-1.562-1.587 14.052 14.052 0 0 0-1.51-1.203v6.4h-2.38V6.119l2.38-.41v12.134l1.357-1.356c.495-.495.981-.999 1.459-1.51l1.357-1.46c.427-.478.793-.896 1.1-1.254h2.791c-.393.426-.819.896-1.28 1.408-.46.512-.939 1.032-1.434 1.561l-1.51 1.562-1.408 1.459ZM101.516 18.944c0-1.177.17-2.201.512-3.072.341-.887.793-1.621 1.357-2.201a5.503 5.503 0 0 1 1.945-1.306 6.078 6.078 0 0 1 2.253-.435c1.792 0 3.166.563 4.122 1.69.955 1.109 1.433 2.807 1.433 5.094v.41c0 .153-.008.298-.025.435h-9.114c.102 1.382.503 2.432 1.203 3.148.7.717 1.792 1.076 3.277 1.076.836 0 1.536-.069 2.099-.205.58-.154 1.016-.299 1.306-.435l.333 1.996c-.291.154-.803.316-1.536.487-.717.17-1.536.256-2.458.256-1.161 0-2.167-.17-3.021-.512-.836-.359-1.527-.845-2.073-1.46a6.052 6.052 0 0 1-1.229-2.175c-.256-.854-.384-1.784-.384-2.79Zm9.139-1.305c.017-1.076-.256-1.955-.819-2.637-.546-.7-1.306-1.05-2.279-1.05-.546 0-1.032.111-1.459.333a3.298 3.298 0 0 0-1.049.82 4.03 4.03 0 0 0-.692 1.177 6.266 6.266 0 0 0-.307 1.357h6.605ZM117.761 12.263h5.044v1.996h-5.044v6.144c0 .666.052 1.22.154 1.664.102.427.256.768.461 1.024a1.7 1.7 0 0 0 .768.512 3.4 3.4 0 0 0 1.075.154c.717 0 1.288-.077 1.715-.23.444-.171.751-.29.922-.359l.461 1.971c-.239.12-.657.265-1.255.436-.597.187-1.28.281-2.048.281-.904 0-1.655-.11-2.253-.333a3.374 3.374 0 0 1-1.408-1.05c-.358-.46-.614-1.023-.768-1.689-.136-.682-.204-1.468-.204-2.355V8.551l2.38-.41v4.122ZM132.9 25.933c-2.885 0-5.086-.802-6.605-2.406-1.502-1.605-2.253-3.883-2.253-6.836 0-1.467.231-2.773.691-3.916.461-1.161 1.093-2.134 1.895-2.919a7.838 7.838 0 0 1 2.867-1.817c1.109-.41 2.312-.615 3.61-.615.75 0 1.433.06 2.048.18.614.102 1.152.23 1.612.383.461.137.845.282 1.152.436.308.153.529.273.666.358l-1.152 3.226a9.58 9.58 0 0 0-1.92-.743c-.717-.205-1.536-.307-2.458-.307-.614 0-1.22.102-1.817.307a4.138 4.138 0 0 0-1.562.999c-.444.443-.802 1.024-1.075 1.74-.273.717-.41 1.588-.41 2.612 0 .819.086 1.587.256 2.304.188.7.478 1.305.871 1.817.409.512.938.922 1.587 1.229.648.29 1.434.435 2.355.435.58 0 1.101-.034 1.562-.102.461-.068.87-.145 1.229-.23a7.58 7.58 0 0 0 .947-.333c.273-.12.52-.23.742-.333l1.101 3.2c-.563.341-1.357.648-2.381.921-1.024.273-2.21.41-3.558.41ZM144.38 22.323c.187.017.401.035.64.052h.896c1.997 0 3.473-.504 4.429-1.51.972-1.008 1.459-2.399 1.459-4.174 0-1.86-.461-3.268-1.383-4.224-.921-.955-2.38-1.433-4.377-1.433-.273 0-.555.008-.845.025-.29 0-.563.017-.819.052v11.212Zm11.545-5.632c0 1.536-.239 2.876-.716 4.02-.478 1.143-1.161 2.09-2.048 2.841-.871.751-1.938 1.314-3.2 1.69-1.263.375-2.68.563-4.25.563-.717 0-1.553-.034-2.509-.102a19.253 19.253 0 0 1-2.816-.359V8.064a21.97 21.97 0 0 1 2.867-.333 39.082 39.082 0 0 1 2.586-.102c1.519 0 2.893.17 4.122.512 1.245.341 2.312.879 3.2 1.613.887.734 1.57 1.672 2.048 2.816.477 1.143.716 2.517.716 4.121ZM170.141 25.575a89.14 89.14 0 0 0-3.712-6.016 61.236 61.236 0 0 0-4.249-5.607v11.623h-3.943V7.834h3.251a31.148 31.148 0 0 1 1.869 2.073 61.98 61.98 0 0 1 2.074 2.637 66.835 66.835 0 0 1 2.125 2.893c.699.99 1.356 1.946 1.971 2.867V7.834h3.968v17.74h-3.354Z" fill="#fff"/><path d="M22.417 31.497c8.697 0 15.748-7.051 15.748-15.749 0-1.421-.188-2.8-.541-4.11-3.297 3.056-7.539 6.5-12.582 9.578-5.208 3.178-9.331 5.357-12.556 6.755a15.683 15.683 0 0 0 9.93 3.526ZM8.642 23.387a15.677 15.677 0 0 1-1.973-7.639C6.669 7.051 13.719 0 22.417 0 28.86 0 34.4 3.87 36.838 9.412c-6.46 4.204-15.02 9.205-21.854 12.361-2.987 1.38-5.005 1.774-6.342 1.614Z" fill="#703DE8"/><path fill-rule="evenodd" clip-rule="evenodd" d="M1.513 31.682a.656.656 0 0 1 .224-.9l4.373-2.628a.656.656 0 0 1 .676 1.125l-4.373 2.628a.656.656 0 0 1-.9-.225ZM1.969 28.346a.656.656 0 0 1 .224-.9l2.184-1.312a.656.656 0 0 1 .676 1.125L2.869 28.57a.656.656 0 0 1-.9-.225ZM.094 29.473a.656.656 0 1 1 1.125-.676.656.656 0 0 1-1.125.676Z" fill="#F56F8E"/><path d="M2.93 30.065c1.138 3.108 7.344 3.251 23.741-6.737 8.914-5.43 13.866-11.894 15.964-15.134.264-.409-.246-.832-.633-.536-5.458 4.182-18.288 12.159-27.715 16.506-8.442 3.893-8.87-.352-8.237-2.32-1.853 2.085-3.235 4.743-3.315 6.807l2.696-1.62a.656.656 0 0 1 .676 1.125l-3.176 1.909Z" fill="#F56F8E"/></svg>