<svg fill="none" height="48" viewBox="0 0 64 48" width="64" xmlns="http://www.w3.org/2000/svg"><circle cx="32.555" cy="16.2303" fill="#703de8" r="14.2301" transform="matrix(-1 0 0 -1 65.11 32.4606)"/><path d="m32.4681 33.4292c-7.4937 0-13.7623 4.1963-15.3344 9.8119-.416 1.4858.871 2.7595 2.4138 2.7595h25.8412c1.5429 0 2.8298-1.2737 2.4139-2.7595-1.5721-5.6156-7.8407-9.8119-15.3345-9.8119z" fill="#f56f8e"/><path clip-rule="evenodd" d="m23.5637 35.641c2.5311-1.3951 5.5988-2.2119 8.9049-2.2119 3.3511 0 6.4573.8392 9.008 2.2693-2.4404 1.966-5.5433 3.1429-8.9211 3.1429-3.4105 0-6.5408-1.1998-8.9918-3.2003z" fill="#ffd147" fill-rule="evenodd"/></svg>